<svg width="59" height="35" viewBox="0 0 59 35" fill="none" xmlns="http://www.w3.org/2000/svg">
<g clip-path="url(#clip0_522_270)">
<path d="M19.3766 12.4743H18.15V11.6725C18.15 11.4394 18.1363 11.2944 18.1092 11.2375C18.084 11.1787 18.0267 11.1494 17.9373 11.1494C17.8363 11.1494 17.7722 11.1844 17.745 11.2546C17.7177 11.3247 17.7042 11.4763 17.7042 11.7095V13.8474C17.7042 14.0712 17.7177 14.2171 17.745 14.2853C17.7722 14.3535 17.8333 14.3877 17.9285 14.3877C18.0198 14.3877 18.079 14.3535 18.1063 14.2853C18.1354 14.2171 18.15 14.0569 18.15 13.8048V13.2277H19.3766V13.4068C19.3766 13.8825 19.3417 14.22 19.2717 14.419C19.2038 14.6179 19.0512 14.7923 18.8143 14.942C18.5792 15.0917 18.2889 15.1667 17.9431 15.1667C17.5838 15.1667 17.2876 15.1031 17.0544 14.9762C16.8213 14.8492 16.6669 14.6738 16.5912 14.4502C16.5154 14.2246 16.4775 13.8863 16.4775 13.4352V12.0904C16.4775 11.7587 16.4892 11.5104 16.5125 11.3455C16.5359 11.1787 16.6047 11.0186 16.7194 10.8651C16.8359 10.7115 16.9962 10.5912 17.2002 10.504C17.406 10.4149 17.642 10.3704 17.9082 10.3704C18.2695 10.3704 18.5677 10.4386 18.8026 10.5751C19.0377 10.7115 19.1921 10.8821 19.266 11.0868C19.3397 11.2896 19.3766 11.6062 19.3766 12.0364V12.4743Z" fill="#EE1B24"/>
<path d="M22.637 10.467V15.07H21.4103V13.1367H21.0433V15.07H19.8167V10.467H21.0433V12.1132H21.4103V10.467H22.637Z" fill="#EE1B24"/>
<path d="M24.359 10.467V15.07H23.1323V10.467H24.359Z" fill="#EE1B24"/>
<path d="M27.6396 10.467V13.5433C27.6396 13.892 27.6279 14.1374 27.6046 14.2796C27.5812 14.4199 27.5124 14.5649 27.3977 14.7147C27.2832 14.8624 27.1316 14.9752 26.9433 15.053C26.7567 15.1288 26.5362 15.1667 26.2818 15.1667C26.0002 15.1667 25.7516 15.1212 25.5359 15.0302C25.3204 14.9392 25.159 14.8208 25.0522 14.6749C24.9454 14.5289 24.8822 14.3753 24.8628 14.2143C24.8434 14.0512 24.8337 13.71 24.8337 13.1907V10.467H26.0604V13.9186C26.0604 14.1195 26.071 14.2484 26.0924 14.3052C26.1158 14.3602 26.1614 14.3877 26.2294 14.3877C26.307 14.3877 26.3566 14.3574 26.378 14.2967C26.4012 14.2341 26.4129 14.0882 26.4129 13.8588V10.467H27.6396Z" fill="#EE1B24"/>
<path d="M42.901 12.4743H41.6727V11.6725C41.6727 11.4394 41.659 11.2944 41.6317 11.2375C41.6065 11.1787 41.5491 11.1494 41.4596 11.1494C41.3585 11.1494 41.2942 11.1844 41.2671 11.2546C41.2399 11.3247 41.2262 11.4763 41.2262 11.7095V13.8474C41.2262 14.0712 41.2399 14.2171 41.2671 14.2853C41.2942 14.3535 41.3556 14.3877 41.4509 14.3877C41.5423 14.3877 41.6016 14.3535 41.6288 14.2853C41.658 14.2171 41.6727 14.0569 41.6727 13.8048V13.2277H42.901V13.4068C42.901 13.8825 42.8659 14.22 42.7959 14.419C42.7279 14.6179 42.5752 14.7923 42.3379 14.942C42.1025 15.0917 41.8117 15.1667 41.4655 15.1667C41.1056 15.1667 40.8089 15.1031 40.5756 14.9762C40.3421 14.8492 40.1874 14.6738 40.1115 14.4502C40.0357 14.2246 39.9978 13.8863 39.9978 13.4352V12.0904C39.9978 11.7587 40.0095 11.5104 40.0328 11.3455C40.0561 11.1787 40.1252 11.0186 40.2399 10.8651C40.3567 10.7115 40.5171 10.5912 40.7214 10.504C40.9276 10.4149 41.164 10.3704 41.4304 10.3704C41.7923 10.3704 42.0908 10.4386 42.3262 10.5751C42.5615 10.7115 42.7162 10.8821 42.7901 11.0868C42.8641 11.2896 42.901 11.6062 42.901 12.0364V12.4743Z" fill="#EE1B24"/>
<path d="M46.166 10.467V15.07H44.9376V13.1367H44.5699V15.07H43.3416V10.467H44.5699V12.1132H44.9376V10.467H46.166Z" fill="#EE1B24"/>
<path d="M48.7832 10.467L49.4864 15.07H48.2288L48.1675 14.2427H47.7269L47.6539 15.07H46.3818L47.0063 10.467H48.7832ZM48.1324 13.4267C48.0702 12.9055 48.0081 12.262 47.9457 11.4962C47.8212 12.3757 47.7435 13.0192 47.7124 13.4267H48.1324Z" fill="#EE1B24"/>
<path d="M52.4888 10.467V13.5433C52.4888 13.892 52.4771 14.1374 52.4538 14.2796C52.4304 14.4199 52.3613 14.5649 52.2467 14.7147C52.1318 14.8624 51.9801 14.9752 51.7914 15.053C51.6047 15.1288 51.3838 15.1667 51.1291 15.1667C50.847 15.1667 50.5981 15.1212 50.3822 15.0302C50.1662 14.9392 50.0048 14.8208 49.8978 14.6749C49.7908 14.5289 49.7276 14.3753 49.7082 14.2143C49.6887 14.0512 49.679 13.71 49.679 13.1907V10.467H50.9073V13.9186C50.9073 14.1195 50.9181 14.2484 50.9395 14.3052C50.9627 14.3602 51.0084 14.3877 51.0766 14.3877C51.1544 14.3877 51.2039 14.3574 51.2253 14.2967C51.2487 14.2341 51.2604 14.0882 51.2604 13.8588V10.467H52.4888Z" fill="#EE1B24"/>
<path fill-rule="evenodd" clip-rule="evenodd" d="M52.3559 1.55556H6.64414C3.85536 1.55556 1.59459 3.76097 1.59459 6.48148V28.4116C1.59459 31.1321 3.85536 33.3375 6.64414 33.3375H52.3559C55.1447 33.3375 57.4054 31.1321 57.4054 28.4116V6.48148C57.4054 3.76097 55.1447 1.55556 52.3559 1.55556ZM6.64414 0C2.97469 0 0 2.90186 0 6.48148V28.4116C0 31.9912 2.97469 34.8931 6.64414 34.8931H52.3559C56.0253 34.8931 59 31.9912 59 28.4116V6.48148C59 2.90186 56.0253 0 52.3559 0H6.64414Z" fill="#01A54F"/>
<path d="M5.38184 21.9074V19.1204L15.8796 3.75928H18.2715L21.3278 7.97224H18.2715L17.142 6.15743L8.3717 19.1204H26.0451L24.517 16.9167H27.5068L28.7692 19.1204L39.6656 3.75928H42.1904L44.9809 7.97224H42.1904L40.928 6.15743L32.0249 19.1204H49.5654L48.0372 16.9167H50.9607L52.4224 19.1204V21.9074H5.38184Z" fill="#EE1B24"/>
<path d="M11.4981 23.9166H5.44824V25.2415H11.4981V23.9166Z" fill="#EE1B24"/>
<path d="M11.4981 26.2052H5.44824V27.5301H11.4981V26.2052Z" fill="#EE1B24"/>
<path d="M11.4981 28.4935H5.44824V29.8184H11.4981V28.4935Z" fill="#EE1B24"/>
<path d="M52.4888 23.9166H46.439V25.2415H52.4888V23.9166Z" fill="#EE1B24"/>
<path d="M52.4888 26.2052H46.439V27.5301H52.4888V26.2052Z" fill="#EE1B24"/>
<path d="M52.4888 28.4935H46.439V29.8184H52.4888V28.4935Z" fill="#EE1B24"/>
<path d="M16.7483 26.0073H17.9892C17.951 25.6808 17.8585 25.3911 17.7116 25.1383C17.5646 24.8855 17.3768 24.6747 17.1483 24.5062C16.9252 24.3324 16.6694 24.2007 16.3809 24.1112C16.0979 24.0217 15.7958 23.9769 15.4746 23.9769C15.0284 23.9769 14.6256 24.0533 14.2665 24.206C13.9126 24.3587 13.6133 24.5695 13.3684 24.8381C13.1235 25.1067 12.9357 25.4227 12.8051 25.7862C12.6744 26.1442 12.6091 26.534 12.6091 26.9554C12.6091 27.3662 12.6744 27.7507 12.8051 28.1089C12.9357 28.4617 13.1235 28.7699 13.3684 29.0333C13.6133 29.2965 13.9126 29.5046 14.2665 29.6574C14.6256 29.8048 15.0284 29.8786 15.4746 29.8786C15.8339 29.8786 16.1632 29.8259 16.4625 29.7206C16.7619 29.6153 17.0231 29.4625 17.2462 29.2623C17.4693 29.0622 17.649 28.8199 17.7851 28.5355C17.9211 28.2511 18.0055 27.9324 18.0382 27.5796H16.7972C16.7483 27.9588 16.6122 28.2643 16.389 28.4959C16.1713 28.7277 15.8665 28.8436 15.4746 28.8436C15.1863 28.8436 14.9412 28.791 14.7399 28.6856C14.5386 28.575 14.3753 28.4302 14.2501 28.2511C14.1249 28.0721 14.0323 27.8719 13.9725 27.6506C13.918 27.4242 13.8909 27.1924 13.8909 26.9554C13.8909 26.7078 13.918 26.4682 13.9725 26.2364C14.0323 26.0047 14.1249 25.7993 14.2501 25.6202C14.3753 25.4359 14.5386 25.291 14.7399 25.1857C14.9412 25.075 15.1863 25.0198 15.4746 25.0198C15.6325 25.0198 15.7821 25.0461 15.9236 25.0987C16.0706 25.1462 16.2012 25.2146 16.3155 25.3042C16.4298 25.3937 16.5251 25.499 16.6013 25.6202C16.6775 25.7361 16.7265 25.8651 16.7483 26.0073Z" fill="#EE1B24"/>
<path d="M18.8401 28.5355V29.7522H20.1219V28.5355H18.8401Z" fill="#EE1B24"/>
<path d="M25.0718 26.0073H26.3126C26.2745 25.6808 26.182 25.3911 26.0351 25.1383C25.8881 24.8855 25.7003 24.6747 25.4718 24.5062C25.2487 24.3324 24.9929 24.2007 24.7044 24.1112C24.4213 24.0217 24.1193 23.9769 23.7981 23.9769C23.3519 23.9769 22.9491 24.0533 22.5899 24.206C22.2361 24.3587 21.9368 24.5695 21.6919 24.8381C21.447 25.1067 21.2591 25.4227 21.1285 25.7862C20.9979 26.1442 20.9326 26.534 20.9326 26.9554C20.9326 27.3662 20.9979 27.7507 21.1285 28.1089C21.2591 28.4617 21.447 28.7699 21.6919 29.0333C21.9368 29.2965 22.2361 29.5046 22.5899 29.6574C22.9491 29.8048 23.3519 29.8786 23.7981 29.8786C24.1574 29.8786 24.4867 29.8259 24.786 29.7206C25.0853 29.6153 25.3466 29.4625 25.5697 29.2623C25.7929 29.0622 25.9725 28.8199 26.1085 28.5355C26.2446 28.2511 26.329 27.9324 26.3617 27.5796H25.1207C25.0718 27.9588 24.9357 28.2643 24.7125 28.4959C24.4948 28.7277 24.19 28.8436 23.7981 28.8436C23.5097 28.8436 23.2648 28.791 23.0634 28.6856C22.8621 28.575 22.6988 28.4302 22.5736 28.2511C22.4484 28.0721 22.3559 27.8719 22.296 27.6506C22.2415 27.4242 22.2144 27.1924 22.2144 26.9554C22.2144 26.7078 22.2415 26.4682 22.296 26.2364C22.3559 26.0047 22.4484 25.7993 22.5736 25.6202C22.6988 25.4359 22.8621 25.291 23.0634 25.1857C23.2648 25.075 23.5097 25.0198 23.7981 25.0198C23.956 25.0198 24.1057 25.0461 24.2471 25.0987C24.3941 25.1462 24.5247 25.2146 24.639 25.3042C24.7534 25.3937 24.8485 25.499 24.9248 25.6202C25.001 25.7361 25.05 25.8651 25.0718 26.0073Z" fill="#EE1B24"/>
<path d="M27.1633 28.5355V29.7522H28.4451V28.5355H27.1633Z" fill="#EE1B24"/>
<path d="M30.4231 24.1112V29.7522H31.7049V27.4216H34.1459V26.4576H31.7049V25.1541H34.5215V24.1112H30.4231Z" fill="#EE1B24"/>
<path d="M36.2856 27.5717L37.0449 25.5016H37.0612L37.7959 27.5717H36.2856ZM36.4081 24.1112L34.2039 29.7522H35.4938L35.951 28.4959H38.1307L38.5716 29.7522H39.9023L37.7225 24.1112H36.4081Z" fill="#EE1B24"/>
<path d="M40.4048 24.1112V29.7522H41.6049V25.9757H41.6212L44.0459 29.7522H45.3276V24.1112H44.1275V27.8955H44.1112L41.6783 24.1112H40.4048Z" fill="#EE1B24"/>
</g>
<defs>
<clipPath id="clip0_522_270">
<rect width="59" height="35" fill="white"/>
</clipPath>
</defs>
</svg>
